<svg width="24" height="24" viewBox="0 0 24 24" fill="none" xmlns="http://www.w3.org/2000/svg">
<g clip-path="url(#clip0_208_1595)">
<path d="M21.9 18.7533L21.6733 18.5533C21.0303 17.9804 20.4674 17.3234 20 16.6C19.4895 15.6017 19.1835 14.5115 19.1 13.3933V10.1C19.1044 8.34374 18.4674 6.64632 17.3085 5.32665C16.1496 4.00698 14.5488 3.15591 12.8067 2.93333V2.07333C12.8067 1.83729 12.7129 1.61092 12.546 1.44401C12.3791 1.2771 12.1527 1.18333 11.9167 1.18333C11.6806 1.18333 11.4543 1.2771 11.2873 1.44401C11.1204 1.61092 11.0267 1.83729 11.0267 2.07333V2.94667C9.30018 3.18529 7.71865 4.0415 6.57503 5.35674C5.4314 6.67197 4.80316 8.3571 4.80667 10.1V13.3933C4.72318 14.5115 4.41719 15.6017 3.90667 16.6C3.44726 17.3216 2.89347 17.9785 2.26001 18.5533L2.03334 18.7533V20.6333H21.9V18.7533Z" fill="white"/>
<path d="M10.2133 21.3333C10.2718 21.7559 10.4812 22.1431 10.8029 22.4233C11.1245 22.7035 11.5367 22.8579 11.9633 22.8579C12.3899 22.8579 12.8021 22.7035 13.1238 22.4233C13.4455 22.1431 13.6549 21.7559 13.7133 21.3333H10.2133Z" fill="white"/>
</g>
<defs>
<clipPath id="clip0_208_1595">
<rect width="24" height="24" fill="white"/>
</clipPath>
</defs>
</svg>
