<svg width="16" height="16" viewBox="0 0 16 16" fill="none" xmlns="http://www.w3.org/2000/svg">
<path d="M13.9999 3.33334L1.99994 3.33334C1.87845 3.33372 1.75936 3.36723 1.65549 3.43026C1.55163 3.49329 1.46692 3.58345 1.41048 3.69104C1.35404 3.79863 1.32802 3.91958 1.33521 4.04086C1.3424 4.16214 1.38253 4.27917 1.45128 4.37934L7.45128 13.046C7.69994 13.4053 8.29861 13.4053 8.54794 13.046L14.5479 4.37934C14.6174 4.27938 14.6581 4.16229 14.6657 4.04081C14.6733 3.91933 14.6474 3.79809 14.5909 3.69027C14.5344 3.58245 14.4495 3.49217 14.3453 3.42924C14.2411 3.36632 14.1217 3.33315 13.9999 3.33334Z" fill="white"/>
</svg>
