<svg width="42" height="42" viewBox="0 0 42 42" fill="none" xmlns="http://www.w3.org/2000/svg">
<path d="M41.3751 8.63976C39.9139 9.28726 38.3442 9.72476 36.6939 9.92251C38.3967 8.90365 39.6706 7.30008 40.2779 5.41101C38.6781 6.36124 36.9273 7.0301 35.1014 7.38851C33.8736 6.07753 32.2473 5.20858 30.475 4.91659C28.7027 4.6246 26.8836 4.9259 25.3001 5.77371C23.7166 6.62151 22.4573 7.9684 21.7177 9.60524C20.9781 11.2421 20.7996 13.0773 21.2099 14.826C17.9684 14.6633 14.7972 13.8207 11.9024 12.3531C9.00753 10.8855 6.45362 8.82554 4.4064 6.30701C3.7064 7.51451 3.3039 8.91451 3.3039 10.4055C3.30312 11.7478 3.63366 13.0694 4.26619 14.2533C4.89872 15.4372 5.81368 16.4466 6.9299 17.192C5.63538 17.1508 4.36943 16.801 3.2374 16.1718V16.2768C3.23727 18.1593 3.88846 19.9839 5.08047 21.441C6.27248 22.8981 7.9319 23.8979 9.77715 24.2708C8.57627 24.5958 7.31724 24.6436 6.09515 24.4108C6.61577 26.0306 7.62989 27.4471 8.99554 28.4619C10.3612 29.4767 12.01 30.0391 13.7111 30.0703C10.8234 32.3372 7.25695 33.5669 3.58565 33.5615C2.93532 33.5617 2.28553 33.5237 1.63965 33.4478C5.36623 35.8438 9.70424 37.1154 14.1346 37.1105C29.1321 37.1105 37.3309 24.689 37.3309 13.916C37.3309 13.566 37.3222 13.2125 37.3064 12.8625C38.9012 11.7092 40.2777 10.2811 41.3717 8.64501L41.3751 8.63976Z" fill="white"/>
</svg>
