<svg width="42" height="42" viewBox="0 0 42 42" fill="none" xmlns="http://www.w3.org/2000/svg">
<g clip-path="url(#clip0_208_1372)">
<path d="M41.1251 11.3871C40.8873 10.5388 40.424 9.77074 39.7846 9.16464C39.1271 8.5399 38.3213 8.093 37.4431 7.86614C34.1566 6.99989 20.9896 6.99989 20.9896 6.99989C15.5004 6.93744 10.0126 7.21212 4.5571 7.82239C3.67894 8.06601 2.87459 8.52289 2.2156 9.15239C1.5681 9.77539 1.0991 10.5436 0.854104 11.3854C0.265566 14.5559 -0.0203855 17.7752 0.000103508 20.9999C-0.0208965 24.2216 0.264354 27.4399 0.854104 30.6144C1.09385 31.4526 1.5611 32.2174 2.21035 32.8351C2.8596 33.4529 3.6681 33.8991 4.5571 34.1354C7.88735 34.9999 20.9896 34.9999 20.9896 34.9999C26.4858 35.0624 31.9806 34.7877 37.4431 34.1774C38.3213 33.9505 39.1271 33.5036 39.7846 32.8789C40.4238 32.2729 40.8865 31.5048 41.1234 30.6564C41.7273 27.4871 42.0209 24.2664 42.0001 21.0401C42.0455 17.8002 41.7523 14.5644 41.1251 11.3854V11.3871ZM16.8036 26.9919V15.0096L27.7586 21.0016L16.8036 26.9919Z" fill="white"/>
</g>
<defs>
<clipPath id="clip0_208_1372">
<rect width="42" height="42" fill="white"/>
</clipPath>
</defs>
</svg>
